<?xml version="1.0" standalone="no"?>
<!DOCTYPE svg PUBLIC "-//W3C//DTD SVG 20010904//EN"
 "http://www.w3.org/TR/2001/REC-SVG-20010904/DTD/svg10.dtd">
<svg version="1.0" xmlns="http://www.w3.org/2000/svg"
 width="921.000000pt" height="943.000000pt" viewBox="0 0 921.000000 943.000000"
 preserveAspectRatio="xMidYMid meet">

<g transform="translate(0.000000,943.000000) scale(0.100000,-0.100000)"
fill="#000000" stroke="none">
<path d="M4170 8669 c-19 -11 -144 -129 -278 -262 -234 -233 -244 -241 -259
-222 -14 19 -87 167 -166 336 -42 91 -99 159 -133 159 -39 0 -85 -54 -200
-235 -59 -93 -127 -201 -151 -238 l-44 -68 -97 88 c-140 128 -161 143 -211
143 -71 0 -94 -19 -145 -122 -25 -51 -99 -228 -165 -393 -66 -165 -124 -300
-130 -300 -5 0 -43 44 -84 98 -128 169 -179 220 -255 260 -39 20 -74 37 -80
37 -6 0 -24 -33 -40 -72 -30 -73 -44 -156 -73 -433 -6 -60 -13 -112 -15 -114
-2 -3 -89 8 -193 23 -121 18 -201 25 -222 21 -19 -4 -55 -7 -82 -6 -93 3 -122
-74 -76 -199 35 -94 159 -484 159 -501 0 -14 -21 -17 -147 -22 -191 -7 -234
-18 -335 -79 -46 -27 -85 -51 -86 -53 -7 -7 113 -161 160 -207 27 -26 95 -78
151 -115 56 -37 103 -68 105 -69 2 -1 -55 -73 -126 -161 -253 -310 -284 -363
-247 -419 23 -36 59 -48 230 -78 83 -15 162 -29 176 -32 l26 -5 -24 -132 c-21
-115 -25 -173 -29 -457 -7 -409 3 -573 39 -650 30 -62 101 -139 163 -176 46
-27 158 -58 288 -79 100 -16 132 -33 151 -78 8 -18 18 -113 24 -222 36 -608
114 -1112 237 -1535 129 -447 353 -791 671 -1029 313 -235 787 -403 1308 -465
359 -43 780 -46 946 -8 325 76 580 256 774 547 94 141 181 311 341 670 501
1124 581 1322 650 1619 10 43 23 80 30 83 6 2 58 -8 115 -23 75 -20 130 -27
199 -28 128 -1 186 20 260 94 67 66 85 117 101 276 11 116 28 242 54 414 23
145 16 342 -14 425 -26 72 -77 152 -143 221 l-49 52 118 27 c177 41 529 139
699 195 139 47 153 54 196 98 51 52 78 99 78 134 0 42 -126 148 -234 199 -36
17 -66 34 -65 37 0 4 57 51 125 105 71 57 143 123 167 155 36 48 42 62 42 104
0 89 -53 121 -383 238 -95 34 -142 61 -142 85 0 7 21 41 48 75 100 129 113
174 67 229 -34 40 -81 61 -390 176 -143 53 -266 100 -273 104 -8 5 18 32 79
81 50 41 106 95 124 120 88 121 58 224 -78 265 -135 40 -487 70 -694 59 -68
-4 -123 -4 -123 0 0 3 25 46 57 94 81 126 103 177 103 243 0 69 -21 100 -85
125 -96 36 -346 -4 -630 -102 -88 -31 -167 -56 -175 -57 -18 -2 -38 66 -39
133 -1 25 13 110 29 189 34 163 38 273 14 344 -9 26 -19 47 -24 47 -4 0 -159
-104 -345 -231 -186 -127 -344 -233 -352 -236 -9 -4 -13 5 -13 31 0 49 -38
316 -56 399 -9 40 -26 80 -41 97 -21 25 -32 30 -72 30 -48 0 -27 11 -557 -281
l-71 -39 1 168 c0 165 0 169 -27 214 -25 43 -73 88 -94 88 -4 0 -24 -9 -43
-21z m505 -1163 c579 -88 1090 -325 1571 -729 258 -217 434 -508 505 -835 28
-132 34 -369 20 -757 -19 -511 -37 -675 -117 -1072 -138 -694 -277 -1114 -529
-1598 -101 -194 -141 -289 -230 -545 -106 -306 -168 -439 -284 -611 -232 -344
-546 -568 -806 -573 -60 -1 -60 -1 -173 82 -62 45 -116 82 -120 82 -4 0 -21
-37 -37 -83 l-30 -82 -70 -3 c-39 -2 -150 1 -247 7 -151 9 -198 16 -330 50
-314 81 -757 239 -962 344 -246 126 -429 320 -555 588 -61 131 -88 213 -151
467 -137 551 -205 936 -230 1302 -24 362 -32 463 -65 800 -60 625 -72 867 -56
1140 23 367 73 609 177 851 268 627 1015 1071 1984 1179 52 5 111 12 130 14
80 9 510 -4 605 -18z m-3130 -2200 c59 -25 64 -40 90 -327 50 -544 76 -861 72
-865 -8 -9 -274 54 -326 76 -69 30 -116 84 -131 151 -8 38 -10 169 -8 429 3
370 3 376 27 423 49 101 178 153 276 113z m5542 -518 c75 -28 132 -75 162
-133 24 -46 26 -59 25 -170 -2 -127 -34 -438 -64 -619 -21 -124 -32 -141 -118
-183 -53 -26 -56 -26 -135 -14 -127 19 -134 21 -162 42 -33 27 -33 69 -1 197
64 251 119 542 157 820 l12 94 35 -7 c20 -4 59 -16 89 -27z"/>
<path d="M3400 6254 c-47 -14 -128 -31 -180 -40 -101 -15 -474 -33 -730 -34
-192 -1 -222 -7 -274 -59 l-41 -41 29 -53 c72 -129 95 -142 283 -157 155 -13
718 -71 1013 -105 270 -31 291 -32 326 -2 25 22 28 33 37 128 13 129 7 162
-43 236 -95 142 -227 182 -420 127z"/>
<path d="M4941 6216 c-52 -17 -85 -47 -114 -101 -20 -36 -22 -56 -22 -185 0
-168 15 -223 69 -265 53 -40 117 -47 381 -40 271 8 254 10 830 -81 283 -45
360 -54 400 -47 l50 8 -1 80 c0 44 -6 90 -12 101 -25 48 -393 274 -492 304
-188 56 -542 143 -665 165 -77 13 -169 33 -205 44 -90 28 -166 34 -219 17z"/>
<path d="M2637 5579 c-201 -19 -388 -120 -476 -257 -51 -81 -39 -121 55 -173
30 -17 83 -60 118 -94 132 -130 253 -186 421 -193 172 -7 296 40 418 158 58
57 67 70 67 102 0 74 -84 101 -167 53 -32 -19 -44 -23 -47 -13 -11 33 -48 220
-44 223 2 2 59 -34 127 -80 134 -91 180 -117 254 -139 l47 -14 -6 26 c-22 102
-36 133 -84 185 -147 161 -403 241 -683 216z m-87 -341 l-1 -153 -84 90 c-46
50 -84 92 -84 95 0 4 159 118 167 119 1 1 2 -68 2 -151z"/>
<path d="M5380 5271 c-171 -15 -271 -55 -360 -144 -88 -88 -80 -137 40 -241
148 -129 310 -219 479 -263 121 -32 330 -37 451 -10 147 33 182 48 236 102
111 111 96 248 -42 381 -74 72 -173 126 -281 155 -63 17 -114 22 -258 24 -99
2 -218 0 -265 -4z m60 -307 l0 -126 -28 19 c-69 44 -241 168 -242 173 0 5 218
54 258 59 9 1 12 -30 12 -125z m602 19 c111 -70 116 -75 109 -101 -7 -25 -16
-29 -135 -60 -71 -18 -129 -32 -131 -30 -1 2 -6 70 -10 152 l-7 150 29 -19
c15 -10 80 -52 145 -92z"/>
<path d="M3887 4992 c-20 -26 -41 -63 -47 -82 -17 -69 -30 -422 -30 -857 l0
-442 -61 -12 c-134 -26 -208 -118 -217 -268 -8 -149 47 -253 148 -281 54 -15
538 -8 720 10 138 14 192 36 234 97 26 37 30 54 34 126 7 141 -30 187 -172
209 -42 7 -76 17 -76 21 0 5 11 51 25 102 l26 93 -3 564 -3 563 -34 63 c-30
55 -38 63 -60 60 -20 -2 -29 -13 -44 -53 -31 -82 -44 -462 -27 -796 7 -146 10
-287 7 -313 -4 -25 -25 -99 -47 -164 -52 -152 -53 -199 -6 -239 18 -17 69 -43
112 -58 44 -16 89 -32 102 -37 17 -6 22 -14 20 -31 -3 -21 -7 -22 -153 -28
-82 -4 -243 -7 -357 -8 l-207 -1 -31 45 c-35 51 -33 57 23 97 25 18 43 22 92
20 75 -3 102 14 115 73 5 23 10 350 10 750 l0 710 -28 57 -27 56 -38 -46z"/>
<path d="M4853 2826 c-34 -31 -36 -36 -25 -58 13 -24 226 -326 242 -342 5 -5
20 15 35 45 49 95 23 204 -73 310 -44 49 -92 79 -127 79 -8 0 -32 -15 -52 -34z"/>
<path d="M3128 2563 c-14 -4 -18 -15 -18 -56 0 -67 14 -93 74 -138 128 -97
258 -134 524 -151 138 -9 182 -15 182 -25 0 -7 8 -13 18 -13 20 0 291 62 637
146 249 61 255 64 304 146 l22 37 -48 21 c-71 32 -132 27 -322 -24 -311 -84
-508 -113 -699 -102 -185 10 -362 55 -511 131 -67 33 -113 41 -163 28z"/>
</g>
</svg>
